<svg width="23px" height="37px" viewBox="297 5581 23 37" version="1.1" xmlns="http://www.w3.org/2000/svg" xmlns:xlink="http://www.w3.org/1999/xlink">
    <!-- Generator: Sketch 40.3 (33839) - http://www.bohemiancoding.com/sketch -->
  <path d="M301.928571,5581 C299.201429,5581 297,5583.25364 297,5586.04545 L297,5612.95455 C297,5615.74636 299.201429,5618 301.928571,5618 L315.071429,5618 C317.798571,5618 320,5615.74636 320,5612.95455 L320,5586.04545 C320,5583.25364 317.798571,5581 315.071429,5581 L301.928571,5581 Z M312,5615 L305,5615 L305,5613 L312,5613 L312,5615 L312,5615 Z M317,5610 L300,5610 L300,5586 L317,5586 L317.125,5609.59091 L317,5610 Z" id="phone" stroke="none" fill="#FFC237" fill-rule="evenodd"></path>
</svg>
