<svg width="124px" height="97px" viewBox="0 0 124 97" version="1.1" xmlns="http://www.w3.org/2000/svg" xmlns:xlink="http://www.w3.org/1999/xlink">
  <g id="question">
      <path d="M58.625,27 C52.0375,27 47,32.044 47,38.64 L47,69.68 C47,75.888 51.8908867,81 58.625,81 L97.375,81 L113,96.84 L113,81 C120.389901,81 124.5,75.888 124,69.68 L124,38.64 C124.5,32.044 119.4625,27 112.875,27 L58.625,27 Z" id="right" fill="#4AABE2"></path>
      <path d="M11.625,0 C5.0375,0 0,5.044 0,11.64 L0,42.68 C0,48.888 5.11903976,54 11,54 L11,70 L27.1199951,54 L39,54 L39,38.8 C38.75,27.936 47.275,19.4 58,19 L78,19 L78,11.64 C78,5.70463859 72.4625,0 65.875,0 L11.625,0 Z" id="left" fill="#000000"></path>
  </g>
</svg>
