<svg width="129px" height="96px" viewBox="0 0 129 96" version="1.1" xmlns="http://www.w3.org/2000/svg" xmlns:xlink="http://www.w3.org/1999/xlink">
  <g id="team">
      <path d="M20,36 C26.627,36 32,30.627 32,24 C32,17.373 26.627,12 20,12 C13.373,12 8,17.373 8,24 C8,30.627 13.373,36 20,36 M109,36 C115.627,36 121,30.627 121,24 C121,17.373 115.627,12 109,12 C102.373,12 97,17.373 97,24 C97,30.627 102.373,36 109,36 M98.536,46.924 L64.35,66.977 L30.164,46.924 C26.947,45.32 23.729,44.117 20.109,44.117 C8.848,44.117 0,52.94 0,64.17 L0,96 L41,96 L41,71.39 L60.328,83.421 C61.133,83.822 63.546,84.624 64.35,84.624 C65.154,84.624 67.568,83.822 68.372,83.421 L88,71.389 L88,96 L129,96 L129,64.17 C128.7,52.94 119.852,44.117 108.591,44.117 C104.971,44.117 101.753,45.32 98.536,46.924" id="persons" fill="#4AABE2"></path>
      <path d="M64,24 C70.627,24 76,18.627 76,12 C76,5.373 70.627,0 64,0 C57.373,0 52,5.373 52,12 C52,18.627 57.373,24 64,24 L64,24 Z M64,57 L83,45.889 C80.625,37.952 73.104,32 64,32 C54.896,32 47.771,37.952 45,45.889 L64,57 Z" id="person" fill="#000000"></path>
  </g>
</svg>
